<svg width="142" height="100" viewBox="0 0 142 100" fill="none" xmlns="http://www.w3.org/2000/svg">
<g clip-path="url(#clip0)">
<path d="M123.595 56.3415L122.006 57.9411L120.443 56.3415L122.006 54.7681L123.595 56.3415Z" fill="white"/>
<path d="M124.766 59.9621L125.596 62.1608H123.072V73.1281L120.842 70.9557V62.1608H119.599L118.769 59.9621H121.005H124.766Z" fill="white"/>
<path d="M118.363 61.8646L118.259 64.4254C116.388 60.9759 112.831 62.3254 111.294 64.5109V73.1215L109.064 70.9491V62.1806H107.2L106.37 59.9555H111.294V63.0166C112.36 60.7784 115.78 58.0596 118.363 61.8646Z" fill="white"/>
<path d="M105.31 56.3415L103.721 57.9411L102.158 56.3415L103.721 54.7681L105.31 56.3415Z" fill="white"/>
<path d="M105.467 59.9621L106.298 62.1608H104.787V73.1281L102.557 70.9557V62.1608H101.315L100.484 59.9621H102.721H105.467Z" fill="white"/>
<path d="M95.9324 71.1532C96.3117 70.903 96.6779 70.62 97.0245 70.304C97.3711 69.988 97.685 69.4811 97.9662 68.7833C97.9662 68.1645 97.9728 67.4733 97.9924 66.6965C98.012 65.9197 97.9793 65.2022 97.9074 64.5373C97.8354 63.8724 97.6981 63.3063 97.4954 62.852C97.2992 62.3912 96.9853 62.1674 96.5537 62.1674H93.0288C92.7476 62.3846 92.4468 62.694 92.1329 63.089C91.819 63.4906 91.577 63.8856 91.4135 64.2871C90.8707 65.6037 90.5699 66.7097 90.5176 67.6115C90.4653 68.5134 90.5699 69.2441 90.8184 69.8103C91.0669 70.3764 91.4266 70.7977 91.8975 71.0742C92.3683 71.3507 92.8653 71.5218 93.3885 71.5877C93.9117 71.6535 94.4021 71.6403 94.8664 71.5482C95.3242 71.4494 95.6839 71.3178 95.9324 71.1532ZM99.4507 63.3392C99.503 63.4379 99.5684 63.6091 99.6469 63.8526C99.7319 64.0962 99.8104 64.3661 99.8954 64.6624C99.9804 64.9652 100.046 65.268 100.105 65.5708C100.164 65.8802 100.19 66.1567 100.19 66.4069V74.2735C100.19 77.6901 96.0893 79.6914 93.0092 78.0588C91.8386 77.44 90.7072 76.2682 89.3862 76.5184C88.8827 76.6105 88.4445 76.7817 88.0914 77.0121C87.7448 77.2425 87.4767 77.5256 87.3132 77.8415C87.1562 78.1444 87.0974 78.4669 87.1562 78.7829C87.2412 79.2437 86.9143 79.3556 86.4172 79.0265C85.9268 78.6973 85.4559 78.0588 85.3774 77.598C85.2728 77.0252 85.3513 76.4986 85.5867 76.0444C85.7894 75.6626 86.1033 75.3202 86.5153 75.0503C90.4391 72.4764 93.2642 79.6124 97.3188 75.7481C98.3259 74.787 97.9597 73.3848 97.9597 71.9695C97.6981 72.1867 97.4365 72.3579 97.188 72.4961C96.364 72.9767 95.5008 73.2203 94.6049 73.2203C93.4277 73.2203 92.3552 72.8384 91.3808 72.0682C90.6026 71.4494 89.9879 70.6463 89.5432 69.6457C89.0985 68.6319 88.8761 67.5655 88.8761 66.4464C88.8761 64.9652 89.2424 63.6683 89.9683 62.5492C90.001 62.4636 90.0402 62.3978 90.0925 62.3386C90.1448 62.2793 90.1841 62.2201 90.2168 62.1542H88.3791L87.5486 59.9555H94.4544C94.9318 59.9555 95.4158 60.0213 95.8932 60.153C96.3706 60.2847 96.8545 60.5019 97.3319 60.8047C98.2213 61.3972 98.921 62.2398 99.4507 63.3392Z" fill="white"/>
<path d="M84.0238 65.2614C83.9387 65.2943 83.736 65.3733 83.4025 65.4984C83.069 65.6235 82.7093 65.7551 82.3104 65.8868C81.9115 66.0185 81.5322 66.1567 81.1659 66.2884C80.7997 66.42 80.5447 66.5122 80.3943 66.5648C80.113 66.6636 79.8253 66.7952 79.5245 66.9532C79.2237 67.1112 78.949 67.2956 78.694 67.4996C78.4389 67.7103 78.2035 67.9407 78.0008 68.1974C77.7915 68.4542 77.6607 68.7438 77.5888 69.0598C77.4383 69.6786 77.3991 70.1855 77.4645 70.5805C77.5299 70.982 77.6607 71.2914 77.8503 71.5021C78.04 71.7193 78.2689 71.8708 78.5435 71.9498C78.8182 72.0353 79.0994 72.0682 79.3872 72.0617C79.6749 72.0551 79.9496 72.0222 80.2046 71.9629C80.4597 71.9037 80.6624 71.851 80.8128 71.7983C81.0286 71.7128 81.2902 71.5877 81.6041 71.4099C81.918 71.2322 82.2319 71.015 82.5458 70.7451C82.8597 70.4817 83.1474 70.1723 83.4156 69.83C83.6772 69.4877 83.8799 69.1191 84.0107 68.7175V65.2614H84.0238ZM84.7431 59.9621C85.2728 59.9621 85.6587 60.0806 85.8941 60.311C86.1361 60.5414 86.2538 60.9298 86.2538 61.463V73.1281L84.6646 71.5811C84.2526 71.93 83.6706 72.2723 82.9186 72.6081C82.1665 72.9438 81.3556 73.1479 80.4858 73.2334C79.616 73.319 78.7593 73.2269 77.9157 72.957C77.0721 72.6936 76.3528 72.1341 75.7577 71.2849C75.6399 71.1203 75.5419 70.9096 75.4568 70.6595C75.3718 70.4093 75.313 70.146 75.2737 69.8695C75.2345 69.593 75.2149 69.3165 75.2214 69.0335C75.228 68.7504 75.2672 68.4937 75.3326 68.2567C75.4307 67.9078 75.5615 67.605 75.7315 67.3548C75.895 67.1046 76.0846 66.8874 76.2874 66.7031C76.4966 66.5188 76.719 66.3674 76.9544 66.2423C77.1964 66.1172 77.4449 65.9987 77.713 65.8802C78.21 65.6498 78.6743 65.4589 79.1125 65.3207C79.5506 65.1824 80.028 65.0178 80.5381 64.8335C80.8063 64.7348 81.1398 64.6097 81.5452 64.4715C81.9507 64.3266 82.33 64.1489 82.6766 63.9316C83.0232 63.7144 83.3044 63.4642 83.5071 63.168C83.7164 62.8784 83.7622 62.536 83.6445 62.1542H75.1756L74.3451 59.9555H84.7431V59.9621Z" fill="white"/>
<path d="M45.4857 62.1608L39.9859 62.1016V68.5595C39.9859 71.693 43.4323 72.0419 45.4857 70.0802V62.8784V62.1608ZM47.7157 73.1281L45.6557 71.1269C45.2764 71.4955 44.8317 71.8379 44.3282 72.1604C41.745 73.8259 37.7428 72.2855 37.7428 68.6385V62.1543L36.9711 59.9621H45.4857V54.7681L47.7223 56.9405V73.1281H47.7157Z" fill="white"/>
<path d="M34.6168 56.3415L33.0277 57.9411L31.4647 56.3415L33.0277 54.7681L34.6168 56.3415Z" fill="white"/>
<path d="M34.7738 59.9621L35.6043 62.1608H34.0936V73.1281L31.8636 70.9557V62.1608H30.6211L29.7906 59.9621H32.0271H34.7738Z" fill="white"/>
<path d="M57.8914 62.1608L52.3915 62.1016V68.5595C52.3915 71.693 55.8379 72.0419 57.8914 70.0802V62.8784V62.1608ZM60.1279 73.1281L58.0679 71.1269C57.6886 71.4955 57.244 71.8379 56.7404 72.1604C54.1572 73.8259 50.155 72.2855 50.155 68.6385V62.1542L49.3768 59.9555H57.8914V54.7615L60.1214 56.9339V73.1281H60.1279Z" fill="white"/>
<path d="M23.3294 65.3865C23.7414 65.7881 24.2711 66.137 24.9055 66.4332C25.5398 66.736 26.1611 67.0454 26.7693 67.368C27.3709 67.6905 27.8875 68.0658 28.3191 68.4937C28.7508 68.9216 28.9666 69.4548 28.9666 70.1065C28.9666 70.541 28.8489 70.9294 28.6069 71.2651C28.3649 71.6074 28.0576 71.9037 27.6783 72.1538C27.299 72.404 26.8739 72.6015 26.403 72.7529C25.9322 72.9043 25.4548 73.0162 24.9774 73.0886C24.5 73.161 24.0422 73.1939 23.6106 73.1742C23.179 73.1544 22.8259 73.1018 22.5447 72.9965C21.9626 72.7792 21.3544 72.4501 20.707 72.009C20.0596 71.5679 19.4906 71.061 18.9936 70.4883C18.4966 69.9156 18.1304 69.31 17.9015 68.678C17.6726 68.046 17.6792 67.4272 17.9277 66.8282C18.1762 66.2423 18.4966 65.8736 18.8825 65.7156C19.2683 65.5576 19.6738 65.5379 20.0988 65.6564C20.5239 65.7749 20.9228 65.979 21.3152 66.2818C21.701 66.578 22.0215 66.9072 22.27 67.2561C21.7272 67.1047 21.2498 67.1376 20.8574 67.3548C20.4585 67.572 20.1642 67.8683 19.9746 68.2567C19.7849 68.6385 19.7195 69.0598 19.7784 69.5206C19.8372 69.9814 20.04 70.3764 20.3866 70.7056C20.7528 71.0545 21.2171 71.2915 21.7861 71.4034C22.355 71.5219 22.9436 71.5482 23.5452 71.4889C24.1469 71.4297 24.7158 71.2914 25.2455 71.0676C25.7752 70.8438 26.1742 70.5607 26.4488 70.2184C26.7235 69.8761 26.815 69.5009 26.7366 69.0796C26.6515 68.6648 26.3049 68.2238 25.6968 67.7564C25.4679 67.5918 25.1605 67.4075 24.7877 67.2034C24.415 67.0059 24.0161 66.7755 23.5975 66.5188C23.1725 66.262 22.7474 65.9592 22.3223 65.6037C21.8907 65.2548 21.5114 64.8467 21.1779 64.3793C20.6482 63.6288 20.3997 62.8915 20.4324 62.1542H17.2214L16.417 59.9555H27.8614L28.6919 62.1542H23.9114C23.5321 62.3386 23.2444 62.5624 23.0417 62.8257C22.8455 63.089 22.7278 63.3721 22.6951 63.6749C22.6624 63.9711 22.7016 64.274 22.8062 64.5768C22.9043 64.8862 23.0809 65.1495 23.3294 65.3865Z" fill="white"/>
<path d="M73.3707 65.5972C73.3642 68.4542 73.3315 72.5554 73.3315 73.1281L71.0949 70.9557C71.0949 70.1921 71.1276 67.2034 71.108 65.1561C71.0949 63.6552 70.2448 62.1938 68.8453 62.1872L66.249 62.1674H65V64.3135H65.013V73.1347L62.783 70.9623V65.6828V62.6151V56.9669L62.7961 54.7681L65.013 56.9603C65.0065 57.6844 65 58.9549 65 59.9621H68.8714C70.0878 59.9621 73.3315 60.3571 73.3315 64.1687C73.338 64.9652 73.3707 64.906 73.3707 65.5972Z" fill="white"/>
<path d="M138.885 78.7039L136.655 76.5447C136.655 71.1466 136.655 60.1728 136.655 54.7747L138.885 56.9471V78.7039ZM134.425 78.7039L132.195 76.5447C131.953 71.4692 132.012 60.4163 132.195 54.7747L134.425 56.9471V78.7039Z" fill="white"/>
<path d="M9.81199 79.2121L7.58198 77.0529C7.58198 71.6549 7.58198 60.1675 7.58198 54.7694L9.81199 56.9418V79.2121ZM5.35196 79.2121L3.12195 77.0529C3.12195 71.6549 3.12195 60.1675 3.12195 54.7694L5.35196 56.9418V79.2121Z" fill="white"/>
<path d="M58.6733 19.0667C58.8451 18.8592 59.0297 18.6691 59.2143 18.4919C60.5966 17.1868 62.4298 16.5386 64.2973 16.504C66.1905 16.4651 68.1052 17.0528 69.6336 18.211C69.8697 18.3882 70.0929 18.5783 70.299 18.7771L70.9988 19.4426L71.6985 18.7771C71.9046 18.5783 72.1278 18.3882 72.364 18.211C73.8923 17.0528 75.8113 16.4694 77.7003 16.504C79.5678 16.5386 81.4009 17.1868 82.7833 18.4919C82.9722 18.6691 83.1525 18.8592 83.3242 19.0667L83.3457 19.0451V16.0113C81.7057 14.797 79.7266 14.1876 77.7303 14.1487C75.4078 14.1055 73.0466 14.8272 71.1533 16.2577C71.1018 16.2966 71.0503 16.3354 70.9988 16.3787L70.9945 16.3743L70.9902 16.3787C70.9387 16.3398 70.8871 16.2966 70.8356 16.2577C68.9424 14.8272 66.5812 14.1012 64.2586 14.1487C62.2623 14.1876 60.2832 14.797 58.6433 16.0113V19.0451L58.6733 19.0667Z" fill="#C5341C"/>
<path d="M71.0032 22.9474C71.2307 22.727 71.4625 22.5153 71.7072 22.3208C73.3558 20.9984 75.3435 20.3156 77.314 20.2897C79.2888 20.2637 81.255 20.9033 82.8435 22.2257C83.0195 22.3727 83.1912 22.5239 83.3544 22.6881C83.5218 22.5282 83.6892 22.3727 83.8652 22.2257C85.458 20.9033 87.4199 20.2637 89.3947 20.2897C91.3524 20.3156 93.3315 20.9941 94.9757 22.3035V25.3761C94.6366 24.9613 94.2631 24.5939 93.8638 24.2698C92.5458 23.211 90.9531 22.6622 89.3775 22.6449C87.8106 22.6233 86.2651 23.1203 85.0287 24.1445C84.6895 24.4254 84.3718 24.7452 84.0842 25.1082L83.3458 26.0373L82.6074 25.1082C82.3197 24.7452 82.002 24.4211 81.6629 24.1445C80.4265 23.1203 78.881 22.6233 77.314 22.6449C75.7384 22.6665 74.15 23.211 72.8277 24.2698C72.4285 24.5896 72.055 24.9613 71.7158 25.3761L70.9903 26.2621L70.2648 25.3761C69.9256 24.9613 69.5521 24.5939 69.1528 24.2698C67.8349 23.211 66.2421 22.6622 64.6666 22.6449C63.0996 22.6233 61.5541 23.1203 60.3177 24.1445C59.9785 24.4254 59.6651 24.7452 59.3775 25.1082L58.6391 26.0373L57.9007 25.1082C57.613 24.7452 57.2953 24.4211 56.9562 24.1445C55.7198 23.1203 54.1786 22.6233 52.6073 22.6449C51.0317 22.6665 49.4433 23.211 48.121 24.2698C47.7218 24.5896 47.3483 24.9613 47.0091 25.3761V22.3035C48.6534 20.9898 50.6325 20.3156 52.5901 20.2897C54.5649 20.2637 56.5312 20.9033 58.1196 22.2257C58.2956 22.3727 58.4674 22.5239 58.6305 22.6881C58.7979 22.5282 58.9654 22.3727 59.1414 22.2257C60.7341 20.9076 62.696 20.2637 64.6709 20.2897C66.6371 20.3156 68.6291 20.9984 70.2776 22.3208C70.5395 22.5153 70.7756 22.7227 71.0032 22.9474Z" fill="#C5341C"/>
<path d="M69.1099 31.2189V39.9139C69.0498 42.1913 68.6162 43.1248 67.0878 44.2614C66.0446 45.0306 64.7524 45.3245 63.4473 45.3245H61.3351C61.8417 43.5137 62.4985 43.1032 63.8852 43.1032C65.9888 43.0081 67.0921 41.6036 67.0921 39.607V31.5128C66.7315 30.7954 66.1391 30.2638 65.4393 29.9181C64.6966 29.5421 63.8423 29.3779 63.018 29.4211C61.1033 29.5162 59.9785 30.6528 59.2744 32.0443V42.9606C58.4759 42.9606 58.0294 42.7229 58.0294 41.8283V31.8542C57.8448 31.5819 57.5915 31.301 57.1579 30.9466C56.0675 30.0391 54.7495 29.5508 53.3886 29.46V39.7237C52.53 39.7237 52.135 39.4515 52.135 38.6217V29.5032C50.8557 29.6459 49.5892 30.1515 48.5074 30.9899C48.0738 31.3313 47.4727 31.9579 47.1078 32.3987V36.2881C45.9702 36.2881 45.8542 35.83 45.8542 35.1904V30.5318C46.3265 29.9613 46.8417 29.4557 47.3998 29.0192C49.0225 27.7573 50.9759 27.1048 52.8949 27.0918C54.8311 27.0832 56.7587 27.7184 58.3299 29.0279C58.4373 29.1143 58.5446 29.2137 58.6562 29.3088C58.9739 28.8377 59.3689 28.4445 59.8154 28.116C60.704 27.4764 61.8073 27.1221 62.9407 27.0659C64.0526 27.0097 65.2161 27.2344 66.2378 27.7487C67.4313 28.3494 68.4445 29.3304 69.0111 30.7133L69.1099 31.2189Z" fill="#C5341C"/>
<path fill-rule="evenodd" clip-rule="evenodd" d="M79.0613 11.733C78.5418 7.71827 75.1331 4.61539 71.0032 4.61539C66.8732 4.61539 63.4645 7.71827 62.945 11.733C63.7908 11.4218 64.688 11.2576 65.5896 11.2403C67.4571 11.2058 69.3546 11.7849 70.8744 12.9387L70.9989 13.0338L71.0032 13.0295L71.0075 13.0338L71.1319 12.9387C72.6517 11.7892 74.5492 11.2058 76.4167 11.2403C77.3183 11.2576 78.2155 11.4218 79.0613 11.733Z" fill="#FFCB05"/>
<path d="M96.152 30.5318V35.1947C96.152 35.8343 96.0361 36.2924 94.907 36.2924V32.403C94.5421 31.9622 93.9325 31.3312 93.4989 30.9942C92.417 30.1558 91.1505 29.6502 89.8712 29.5075V38.626C89.8712 39.4558 89.4805 39.728 88.6262 39.728V29.4643C87.2653 29.5508 85.9387 30.0434 84.8483 30.9509C84.4276 31.3053 84.1657 31.5776 83.9811 31.8498V41.8326C83.9811 42.7272 83.5346 42.9649 82.7275 42.9649V32.0443C82.0235 30.6528 80.9073 29.5162 78.9925 29.4211C78.1683 29.3822 77.3139 29.5421 76.5712 29.9181C75.8758 30.2638 75.279 30.7954 74.9184 31.5128V39.607C74.9184 41.6036 76.0131 43.0081 78.1253 43.1032C79.512 43.1032 80.1688 43.5137 80.6711 45.3244H78.5675C77.2538 45.3244 75.9616 45.0306 74.927 44.2613C73.3987 43.1248 72.9565 42.1913 72.8964 39.9139V31.2189L72.9994 30.7089C73.5747 29.326 74.5921 28.345 75.7813 27.7444C76.8031 27.2344 77.9622 27.0097 79.0784 27.0615C80.2161 27.1177 81.3194 27.4721 82.1995 28.1117C82.6545 28.4401 83.0452 28.8334 83.3629 29.3044C83.4659 29.2094 83.5733 29.1143 83.6892 29.0235C85.2604 27.7141 87.1837 27.0832 89.1199 27.0875C91.0475 27.1004 92.9923 27.7573 94.6236 29.0149C95.1646 29.4557 95.684 29.9613 96.152 30.5318Z" fill="#C5341C"/>
<path d="M5.63312 88.4468C6.26746 88.4468 6.82333 88.5192 7.29418 88.6706C7.76504 88.822 8.15741 89.0261 8.47132 89.296C8.78522 89.5659 9.01411 89.8951 9.17106 90.2901C9.32801 90.6784 9.40648 91.1195 9.40648 91.6001C9.40648 92.074 9.33455 92.5019 9.1776 92.9035C9.02719 93.2985 8.80484 93.6408 8.51056 93.9239C8.21627 94.2069 7.85005 94.4308 7.4119 94.5888C6.97374 94.7467 6.46365 94.8323 5.88162 94.8323H3.97859V89.612C3.97859 89.3224 3.93935 89.0854 3.86088 88.9076C3.7824 88.7299 3.59929 88.6443 3.30501 88.6443H3.11536V88.4534H5.63312V88.4468ZM4.89414 94.3649C5.27344 94.4505 5.59388 94.49 5.86854 94.49C6.21514 94.49 6.54866 94.4242 6.84949 94.2925C7.15685 94.1609 7.41844 93.9699 7.64079 93.7198C7.86313 93.4696 8.0397 93.1734 8.17049 92.8179C8.29475 92.469 8.36014 92.074 8.36014 91.633C8.36014 91.2051 8.29475 90.8167 8.17703 90.4678C8.05278 90.1189 7.87621 89.8161 7.65386 89.5659C7.43151 89.3158 7.16339 89.1183 6.85603 88.9866C6.54867 88.8484 6.2086 88.7825 5.84892 88.7825C5.70505 88.7825 5.55464 88.7957 5.39115 88.822C5.22766 88.8484 5.06417 88.8879 4.8876 88.9405V94.3649H4.89414Z" fill="white"/>
<path d="M11.0414 89.612C11.0414 89.3224 10.9825 89.0854 10.8583 88.9076C10.734 88.7299 10.5117 88.6443 10.1782 88.6443H10.0801V88.4534H10.7013C11.0152 88.4534 11.2703 88.5061 11.473 88.6114C11.6757 88.7167 11.8523 88.855 11.9962 89.0393L15.3576 93.2458V88.46H15.7434V94.9377H15.5537L11.4207 89.7634V94.8389H11.0349V89.612H11.0414Z" fill="white"/>
<path d="M20.2427 91.6856L22.2503 88.4468H22.6819L20.4323 92.1201V94.8257H19.5691V92.186L17.9342 89.6976C17.8361 89.5527 17.7445 89.4211 17.653 89.296C17.5614 89.1709 17.4568 89.059 17.3521 88.9669C17.241 88.8747 17.1232 88.7957 16.9925 88.743C16.8617 88.6838 16.7113 88.6509 16.5478 88.6377V88.4468H17.411C17.5876 88.4468 17.7511 88.4797 17.8884 88.539C18.0323 88.5982 18.1565 88.6838 18.2742 88.7825C18.3919 88.8813 18.4966 88.9932 18.5881 89.1183C18.6797 89.2434 18.7712 89.375 18.8497 89.5067L20.2427 91.6856Z" fill="white"/>
<path d="M23.7414 92.6073H26.0956L24.9447 89.8029L23.7414 92.6073ZM28.548 94.8323C28.4368 94.8652 28.3126 94.8784 28.1622 94.8784C28.051 94.8784 27.9267 94.8652 27.7829 94.8389C27.639 94.8126 27.4886 94.7533 27.3382 94.6678C27.1877 94.5822 27.0373 94.4505 26.8935 94.2859C26.7496 94.1214 26.6253 93.8975 26.5207 93.6211L26.2787 92.9891H23.591L22.8193 94.8258H22.3877L25.0755 88.4402H25.3632L27.4755 93.6145C27.554 93.7922 27.6259 93.9502 27.6913 94.0753C27.7567 94.2004 27.8352 94.3057 27.9137 94.3781C27.9987 94.4571 28.0837 94.5164 28.1818 94.5493C28.2799 94.5888 28.391 94.6151 28.5284 94.6283V94.8323H28.548Z" fill="white"/>
<path d="M29.5616 89.612C29.5616 89.3224 29.5028 89.0854 29.3785 88.9076C29.2543 88.7299 29.0319 88.6443 28.6984 88.6443H28.6003V88.4534H29.2216C29.5355 88.4534 29.7905 88.5061 29.9933 88.6114C30.196 88.7167 30.3726 88.855 30.5164 89.0393L33.8778 93.2458V88.46H34.2636V94.9377H34.074L29.9409 89.7634V94.8389H29.5551V89.612H29.5616Z" fill="white"/>
<path d="M36.801 92.6073H39.1553L38.0043 89.8029L36.801 92.6073ZM41.6076 94.8323C41.4964 94.8652 41.3722 94.8784 41.2218 94.8784C41.1106 94.8784 40.9864 94.8652 40.8425 94.8389C40.6986 94.8126 40.5482 94.7533 40.3978 94.6678C40.2474 94.5822 40.097 94.4505 39.9531 94.2859C39.8092 94.1214 39.685 93.8975 39.5803 93.6211L39.3384 92.9891H36.6506L35.8789 94.8258H35.4473L38.1351 88.4402H38.4228L40.5351 93.6145C40.6136 93.7922 40.6855 93.9502 40.7509 94.0753C40.8163 94.2004 40.8948 94.3057 40.9798 94.3781C41.0648 94.4571 41.1498 94.5164 41.2479 94.5493C41.346 94.5888 41.4572 94.6151 41.5945 94.6283V94.8323H41.6076Z" fill="white"/>
<path d="M49.6448 95.2668C49.2982 95.2668 49.0105 95.2273 48.7816 95.1483C48.5527 95.0693 48.3696 94.9442 48.2323 94.7731C48.095 94.6085 48.0034 94.3913 47.9511 94.1279C47.8988 93.8646 47.8726 93.5486 47.8726 93.1932V89.4672L45.4726 94.8323H45.2764L42.7782 89.3684V94.8323H42.3924V88.4468H43.3079L45.6164 93.4762L47.8726 88.4468H48.7358V93.1866C48.7358 93.7725 48.8078 94.2333 48.9582 94.569C49.1086 94.9047 49.3375 95.0693 49.6514 95.0693V95.2668H49.6448Z" fill="white"/>
<path d="M61.9132 93.2063C61.9132 93.4762 61.8674 93.7198 61.7759 93.9436C61.6843 94.1608 61.547 94.3518 61.377 94.5097C61.2069 94.6677 60.9911 94.7862 60.7492 94.8718C60.5007 94.9574 60.226 94.9969 59.9186 94.9969C59.657 94.9969 59.3955 94.9706 59.1339 94.9113C58.8723 94.8586 58.6434 94.7797 58.4341 94.6743C58.2249 94.569 58.0548 94.4439 57.924 94.2991C57.7933 94.1543 57.7279 93.9897 57.7279 93.812V92.7784H57.9175C58.0287 93.4301 58.238 93.8975 58.5519 94.1806C58.8658 94.4637 59.2974 94.6085 59.8336 94.6085C59.9971 94.6085 60.1541 94.5887 60.3045 94.5427C60.4549 94.5032 60.5857 94.4373 60.6968 94.3518C60.8146 94.2662 60.9061 94.1674 60.9715 94.0424C61.0434 93.9173 61.0761 93.779 61.0761 93.6145C61.0761 93.3314 60.9911 93.0878 60.8146 92.8903C60.638 92.6928 60.3764 92.4888 60.0233 92.2781L58.8396 91.5737C58.4276 91.3302 58.1399 91.08 57.9698 90.8298C57.7998 90.5797 57.7148 90.2703 57.7148 89.9082C57.7148 89.6581 57.7606 89.4343 57.8521 89.2302C57.9437 89.0327 58.0679 88.8549 58.2314 88.7101C58.3949 88.5653 58.5911 88.4534 58.82 88.3744C59.0489 88.2954 59.3039 88.2559 59.5851 88.2559C59.8205 88.2559 60.0625 88.2822 60.311 88.3349C60.5595 88.3876 60.7819 88.46 60.978 88.5587C61.1742 88.6575 61.3377 88.7825 61.4685 88.9274C61.5993 89.0722 61.6582 89.2368 61.6582 89.4145V90.448H61.4685C61.3573 89.7963 61.1546 89.3355 60.8473 89.0524C60.5399 88.776 60.1214 88.6377 59.5786 88.6377C59.4347 88.6377 59.3039 88.6575 59.1666 88.7035C59.0358 88.7496 58.9181 88.8154 58.8134 88.8944C58.7088 88.98 58.6303 89.0788 58.5649 89.2038C58.4995 89.3289 58.4668 89.4606 58.4668 89.612C58.4668 89.7568 58.4865 89.8819 58.5322 89.9872C58.578 90.0991 58.6434 90.1979 58.735 90.2966C58.8265 90.3954 58.9377 90.4875 59.0685 90.5797C59.2058 90.6719 59.3562 90.7706 59.5328 90.8759L60.7165 91.5803C60.9192 91.7054 61.1023 91.8173 61.2527 91.9358C61.4031 92.0477 61.5274 92.1662 61.6255 92.2913C61.7236 92.4164 61.7955 92.548 61.8413 92.6928C61.887 92.864 61.9132 93.0286 61.9132 93.2063Z" fill="white"/>
<path d="M64.0974 92.6073H66.4517L65.3007 89.8029L64.0974 92.6073ZM68.9041 94.8323C68.7929 94.8652 68.6686 94.8784 68.5182 94.8784C68.407 94.8784 68.2828 94.8652 68.1389 94.8389C67.9951 94.8126 67.8446 94.7533 67.6942 94.6678C67.5438 94.5822 67.3934 94.4505 67.2495 94.2859C67.1057 94.1214 66.9814 93.8975 66.8768 93.6211L66.6348 92.9891H63.947L63.1753 94.8258H62.7437L65.4315 88.4402H65.7192L67.8316 93.6145C67.91 93.7922 67.982 93.9502 68.0474 94.0753C68.1128 94.2004 68.1912 94.3057 68.2762 94.3781C68.3613 94.4571 68.4463 94.5164 68.5444 94.5493C68.6425 94.5888 68.7536 94.6151 68.891 94.6283V94.8323H68.9041Z" fill="white"/>
<path d="M73.7565 88.4468V88.8352H71.5919V94.8323H70.7286V88.8352H69.8654C69.4796 88.8352 69.1853 88.9208 68.976 89.0985C68.7668 89.2763 68.6621 89.5593 68.6621 89.9477H68.4725V89.2236C68.4725 89.1249 68.4856 89.0327 68.5052 88.9405C68.5248 88.8484 68.5706 88.7628 68.6294 88.697C68.6883 88.6246 68.7733 88.5653 68.8779 88.5258C68.9826 88.4797 69.1199 88.46 69.2834 88.46H73.7565V88.4468Z" fill="white"/>
<path d="M77.6672 91.6856L79.6749 88.4468H80.1065L77.8568 92.1201V94.8257H76.9936V92.186L75.3587 89.6976C75.2606 89.5527 75.169 89.4211 75.0775 89.296C74.9859 89.1709 74.8813 89.059 74.7767 88.9669C74.6655 88.8747 74.5478 88.7957 74.417 88.743C74.2862 88.6838 74.1358 88.6509 73.9723 88.6377V88.4468H74.8355C75.0121 88.4468 75.1756 88.4797 75.3129 88.539C75.4568 88.5982 75.581 88.6838 75.6988 88.7825C75.8165 88.8813 75.9211 88.9932 76.0127 89.1183C76.1042 89.2434 76.1958 89.375 76.2742 89.5067L77.6672 91.6856Z" fill="white"/>
<path d="M81.1659 92.6073H83.5201L82.3692 89.8029L81.1659 92.6073ZM85.9725 94.8323C85.8613 94.8652 85.7371 94.8784 85.5867 94.8784C85.4755 94.8784 85.3512 94.8652 85.2074 94.8389C85.0635 94.8126 84.9131 94.7533 84.7627 94.6678C84.6123 94.5822 84.4618 94.4505 84.318 94.2859C84.1741 94.1214 84.0499 93.8975 83.9452 93.6211L83.7033 92.9891H81.0155L80.2438 94.8258H79.8122L82.5 88.4402H82.7877L84.9 93.6145C84.9785 93.7922 85.0504 93.9502 85.1158 94.0753C85.1812 94.2004 85.2597 94.3057 85.3382 94.3781C85.4232 94.4571 85.5082 94.5164 85.6063 94.5493C85.7044 94.5888 85.8155 94.6151 85.9529 94.6283V94.8323H85.9725Z" fill="white"/>
<path d="M94.0097 95.2668C93.6631 95.2668 93.3754 95.2273 93.1465 95.1483C92.9176 95.0693 92.7345 94.9442 92.5972 94.7731C92.4598 94.6085 92.3683 94.3913 92.316 94.1279C92.2636 93.8646 92.2375 93.5486 92.2375 93.1932V89.4672L89.8374 94.8323H89.6478L87.1496 89.3684V94.8323H86.7638V88.4468H87.6793L89.9878 93.4762L92.244 88.4468H93.1072V93.1866C93.1072 93.7725 93.1792 94.2333 93.3296 94.569C93.48 94.9047 93.7089 95.0693 94.0228 95.0693V95.2668H94.0097Z" fill="white"/>
<path d="M106.278 93.2063C106.278 93.4762 106.232 93.7198 106.141 93.9436C106.049 94.1608 105.912 94.3518 105.742 94.5097C105.572 94.6677 105.362 94.7862 105.114 94.8718C104.865 94.9574 104.591 94.9969 104.283 94.9969C104.022 94.9969 103.76 94.9706 103.499 94.9113C103.237 94.8586 103.008 94.7797 102.799 94.6743C102.59 94.569 102.42 94.4439 102.289 94.2991C102.158 94.1543 102.093 93.9897 102.093 93.812V92.7784H102.282C102.393 93.4301 102.603 93.8975 102.917 94.1806C103.231 94.4637 103.662 94.6085 104.198 94.6085C104.362 94.6085 104.519 94.5887 104.669 94.5427C104.82 94.5032 104.95 94.4373 105.062 94.3518C105.179 94.2662 105.271 94.1674 105.336 94.0424C105.408 93.9173 105.441 93.779 105.441 93.6145C105.441 93.3314 105.356 93.0878 105.179 92.8903C105.003 92.6928 104.741 92.4888 104.388 92.2781L103.204 91.5737C102.792 91.3302 102.505 91.08 102.335 90.8298C102.165 90.5797 102.08 90.2703 102.08 89.9082C102.08 89.6581 102.125 89.4343 102.217 89.2302C102.308 89.0327 102.433 88.8549 102.596 88.7101C102.76 88.5653 102.956 88.4534 103.185 88.3744C103.414 88.2954 103.669 88.2559 103.95 88.2559C104.185 88.2559 104.427 88.2822 104.676 88.3349C104.924 88.3876 105.147 88.46 105.343 88.5587C105.539 88.6575 105.703 88.7825 105.833 88.9274C105.964 89.0722 106.023 89.2368 106.023 89.4145V90.448H105.833C105.722 89.7963 105.519 89.3355 105.212 89.0524C104.905 88.776 104.486 88.6377 103.943 88.6377C103.8 88.6377 103.669 88.6575 103.531 88.7035C103.401 88.7496 103.283 88.8154 103.178 88.8944C103.074 88.98 102.995 89.0788 102.93 89.2038C102.864 89.3289 102.832 89.4606 102.832 89.612C102.832 89.7568 102.851 89.8819 102.897 89.9872C102.943 90.0991 103.008 90.1979 103.1 90.2966C103.191 90.3954 103.303 90.4875 103.433 90.5797C103.571 90.6719 103.721 90.7706 103.898 90.8759L105.081 91.5803C105.284 91.7054 105.467 91.8173 105.618 91.9358C105.768 92.0477 105.892 92.1662 105.99 92.2913C106.088 92.4164 106.16 92.548 106.206 92.6928C106.252 92.864 106.278 93.0286 106.278 93.2063Z" fill="white"/>
<path d="M108.462 92.6073H110.817L109.666 89.8029L108.462 92.6073ZM113.269 94.8323C113.158 94.8652 113.033 94.8784 112.883 94.8784C112.772 94.8784 112.648 94.8652 112.504 94.8389C112.36 94.8126 112.209 94.7533 112.059 94.6678C111.909 94.5822 111.758 94.4505 111.614 94.2859C111.471 94.1214 111.346 93.8975 111.242 93.6211L111 92.9891H108.312L107.54 94.8258H107.109L109.796 88.4402H110.084L112.196 93.6145C112.275 93.7922 112.347 93.9502 112.412 94.0753C112.478 94.2004 112.556 94.3057 112.635 94.3781C112.72 94.4571 112.805 94.5164 112.903 94.5493C113.001 94.5888 113.112 94.6151 113.249 94.6283V94.8323H113.269Z" fill="white"/>
<path d="M121.306 95.2668C120.96 95.2668 120.672 95.2273 120.443 95.1483C120.214 95.0693 120.031 94.9442 119.894 94.7731C119.756 94.6085 119.665 94.3913 119.612 94.1279C119.56 93.8646 119.534 93.5486 119.534 93.1932V89.4672L117.134 94.8323H116.944L114.446 89.3684V94.8323H114.06V88.4468H114.976L117.284 93.4762L119.54 88.4468H120.404V93.1866C120.404 93.7725 120.476 94.2333 120.626 94.569C120.776 94.9047 121.005 95.0693 121.319 95.0693V95.2668H121.306Z" fill="white"/>
<path d="M123.216 92.6073H125.57L124.419 89.8029L123.216 92.6073ZM128.016 94.8323C127.905 94.8652 127.78 94.8784 127.63 94.8784C127.519 94.8784 127.395 94.8652 127.251 94.8389C127.107 94.8126 126.956 94.7533 126.806 94.6678C126.656 94.5822 126.505 94.4505 126.361 94.2859C126.217 94.1214 126.093 93.8975 125.988 93.6211L125.747 92.9891H123.059L122.287 94.8258H121.855L124.543 88.4402H124.831L126.943 93.6145C127.022 93.7922 127.094 93.9502 127.159 94.0753C127.224 94.2004 127.303 94.3057 127.388 94.3781C127.473 94.4571 127.558 94.5164 127.656 94.5493C127.754 94.5888 127.865 94.6151 128.003 94.6283V94.8323H128.016Z" fill="white"/>
<path d="M132.875 88.4468V88.8352H130.71V94.8323H129.847V88.8352H128.984C128.598 88.8352 128.304 88.9208 128.094 89.0985C127.885 89.2763 127.78 89.5593 127.78 89.9477H127.591V89.2236C127.591 89.1249 127.604 89.0327 127.623 88.9405C127.643 88.8484 127.689 88.7628 127.748 88.697C127.806 88.6246 127.892 88.5653 127.996 88.5258C128.101 88.4797 128.238 88.46 128.402 88.46H132.875V88.4468Z" fill="white"/>
<path d="M134.065 92.6073H136.419L135.268 89.8029L134.065 92.6073ZM138.865 94.8323C138.754 94.8652 138.63 94.8784 138.479 94.8784C138.368 94.8784 138.244 94.8652 138.1 94.8389C137.956 94.8126 137.806 94.7533 137.655 94.6678C137.505 94.5822 137.354 94.4505 137.211 94.2859C137.067 94.1214 136.942 93.8975 136.838 93.6211L136.596 92.9891H133.908L133.136 94.8258H132.705L135.393 88.4402H135.68L137.793 93.6145C137.871 93.7922 137.943 93.9502 138.008 94.0753C138.074 94.2004 138.152 94.3057 138.231 94.3781C138.316 94.4571 138.401 94.5164 138.499 94.5493C138.597 94.5888 138.708 94.6151 138.845 94.6283V94.8323H138.865Z" fill="white"/>
<path d="M52.8083 90.5577L51.5968 91.7773L52.8083 92.9969L54.0198 91.7773L52.8083 90.5577Z" fill="white"/>
<path d="M98.1098 90.5604L96.8982 91.78L98.1098 92.9995L99.3213 91.78L98.1098 90.5604Z" fill="white"/>
</g>
<defs>
<clipPath id="clip0">
<rect width="142" height="100" fill="white"/>
</clipPath>
</defs>
</svg>
